<svg xmlns="http://www.w3.org/2000/svg" id="Layer_2" data-name="Layer 2" viewBox="0 0 66 66"><defs><clipPath id="clippath"><rect width="64" height="64" x="1" y="1" class="cls-1" rx="32" ry="32"/></clipPath><style>.cls-1{fill:none;stroke:#2e2e3b;stroke-miterlimit:10;stroke-width:2px}.cls-2{fill:#2e2e3b}</style></defs><g id="Layer_1-2" data-name="Layer 1"><g style="clip-path:url(#clippath)"><path d="M62.37 29.46c-.66 0-7.3 2.06-7.3 2.06-.7-2.04-2.02-2.65-3.64-3.78l-.77-1.64-1.26-2.36c-.69-1.3-1.38-2.55-2.46-3.59l-3.05-2.94c-1.4-1.09-2.79-2.14-4.45-2.78-2.09-.81-4.27-1.06-6.44-1.54l-3.57-.8-4.42-.68c-1.26-.19-2.31-.48-3.58-.87-.72-.22-1.7-.98-2.5-.67-.95.36-.97 1.77-.53 2.73-2.88.29-5.67.08-8.54-.18l-5.15-.46-1.55-.76C-.72 9.97-3.97 7.66-6.56 4.5c-2.3-2.8-4.24-5.7-6.12-8.79l-2.68-4.42c-3.73-6.15-6.8-10.53-11.33-16.11l-.54-.66-4.16-4.27-6.48-6.47-4.42-4.03c-2.36-1.89-4.58-3.8-6.65-6-1.69-1.79-3-3.72-4.36-5.75l-.67-1.01-1.66-2.68-2.81-4.13c-1.04-1.53-2.01-3.04-3.21-4.46l-1.52-1.81c-1.21-1.45-2.58-2.61-4.1-3.73-2.1-1.55-4.19-2.96-6.43-4.26l-2.29-1.33c-1.11-.64-2.21-1.07-3.49-1.32-2.75-.53-5.48-1.02-8.3-.74-4.04.4-7.28 3.43-8.42 7.25-.62 2.1-.79 4.64.1 6.52l1 2.12 1.25 1.64c1.26 1.65 2.91 3.24 4.99 3.61 1.5.27 3.1.07 4.35-.57.84-.43 1.06-1.28.93-2.06-.14-.9-.53-1.58-1.37-1.94l-1.89-.8c-.67-.29-1.16-.79-1.89-.95-.91-.21-2.22-1.95-2.06-2.56.41-1.59-.17-2.76 1.53-4.47.99-.99 2.44-1.32 3.85-1.39 3.09-.16 7.17 1.5 9.99 3.08 3.54 1.98 6.56 4.58 9.34 7.52l3.15 3.64c1.72 1.98 2.96 4.23 3.86 6.7.11.31.61 1.75.71 2.2l.37 1.88c.13.64.11 1.11.13 1.71l.08 1.9c-2.34.53-4.4 1.46-6.29 2.79-1.4.98-2.72 1.95-3.87 3.22l-2.34 3.39-1.65 2.25-2.33 2.21c-.37.35-.63.75-1.2 1.06-.28-1.08-.11-2.27-.13-3.48l-.04-2.76c-.03-1.93-1.8-3.05-3.38-2.9-1.6.16-2.81.93-3.67 2.23l-1.19 2.57-.38 1.04c.61.55.34 1.33.42 2.03l.22 1.85 1.34 6.03c.34 1.53.15 2.89-.32 4.36l-.38 2.63c-.3 2 .08 3.94.51 5.87.11.48 0 .98.31 1.4l-.86 2.23-.48 1.79c.24.53.05 2.49 2.35 3.19.51.15 1.26.08 1.78-.04l2.7-.61 4.79-1.39c.83-.24 1.61-.25 2.39-.16l4.88-2.02 1.31-.34 2.99-.52c3.99-.69 7.62 2.49 9.27 6.21.47 1.05.94 1.96 1.29 3.09l.67 2.15.48 2.2.58 2.44.54 3.24.49 2.21.8 3.12.97 2.52 1.37 2.98c.48 1.04.93 1.99 1.6 2.93l.92 1.78c.41.8.67 1.56 1.14 2.34l1.15 1.89 3.98 5.33c.27.37.46.58.79.92l2.96 3.05c.58.6.7 1.43 1.03 2.13l.71.97c1.6 2.56 2.75 5.25 3.82 8.09 1.13 3.01 1.86 6.05 2.74 9.13l.64 2.24c.41 1.42.93 2.86 1.78 4.1l1.05 1.53c.59.87 1.63 1.46 2.62 1.88 2.69 1.15 5.19 2.44 7.57 4.18l1.04.64c.61-.15 1.11.14 1.71.22l2.53.33c1.48.2 3.01-.11 4.44.43l1.4.53c.81.31 1.63.78 2.23 1.38l1.19.9a6.6 6.6 0 0 1 2.58 4.46c.11.88.52 1.43.9 2.16l1.04 1.97.77 1.35c.93 1.65 2.69 4.37 4.13 5.42.14.1.45.68 1.28.34l1.59-.65c.81-.28 1.6.05 2.16.74.39-.25.58-.72.39-1.21l-.38-.98c.05-.65.91-2.19-.12-3.22-.23-.23-.46-.45-.67-.69l-2.66-3.03c-.12-.09-.12-.35-.06-.44.4-.61 1.78-.18 2.9.77 1.09.92 1.71 2.26 2.03 3.65 1.31 1.41 1.68 3.84.72 5.64.88-.24 2-.63 2.48-1.36.42-.47 1.14-2.42.4-4.1.04-.43.38-.77.14-1.34l-.15-.35c-.49-1.14-1.13-2.21-1.94-3.14-.45-.51-.93-.97-1.54-1.32-.35-.2-.82-.17-.96-.6a.3.3 0 0 0 .08-.04c.42-.26.91-.38 1.38-.22.87.29 1.58.89 2.25 1.6 1.22 1.29 1.92 2.86 2.37 4.58.19.73.62 1.41.4 2.23-.05.17-.13.44-.04.59.24.41 2.15-.09 2.29 2.46l1.44-2.59c.55-1 .69-2.03.6-3.17.78.75.78 1.03.79 2.07 0 1.07-.38 2.3-1.07 3.08l-1.42 1.61c-.27.31-.57.62-.96.75l1.2 1.82c.62.84 1.1 1.76 1.88 2.47 1.08.97 2.45 1.59 3.88 1.46.78-.07 1.45-.14 2.15-.48.63-.31 1.42-.25 1.87.33.64.81.95 1.76 1.3 2.82 1.71-.38 2.43-3.25 1.21-4.81 1-.13 1.68-.53 2.3-1.12.87 1.3.68 3.27 1.24 3.2 1.33-.17 1.83-2.69 1.48-4.57 1.39.72 1.39 2.17 2.04 3.21 1.32-.57 1.33-2.42 1.29-4.19.95.54 1.69 1.37 1.99 2.39.08.27.06.58.37.62 1.11.15 1.91-4.18-.73-6.47-.5-1.81-1.5-3.45-3.15-4.35-1.07-.58-2.21-.96-3.46-.72l-3.34 1.13c-1.06.36-1.97.15-2.85-.6-2.19-1.86-3.91-4.17-5.31-6.73l-4.85-8.87-2.11-4.37-1.48-2.44-3.64-6.46c-1.4-2.49-1.97-5.03-1.69-7.88.25-2.67 0-5.27-.91-7.87s-.06-.07-.09-.11c-.54-.91-.73-1.95-1.03-2.97-1.04-3.5-1.44-7.09-1.02-10.73.17-1.45.03-2.92.76-4.28.31 1.73.61 3.19 1.83 4.24.33.28.55.69.45 1.15-.27 1.2.05 2.26.41 3.36.19.58.34.9.86 1.26.24.17.46.39.75.5.05 0 .09.01.15.01.19 0 .35.04.48.1 1.29.2.85 1.89 3.29 3.36.03.02.06.03.09.04l1.12.56h-.04l.45.22.35-.11c1.48-.46 2.7-.49 4.01.37.76.5 1.77.75 2.24 1.69.18.36.45 1.19.25 1.59l-1.47 2.89c-.37.73-.79 1.41-.73 2.29l3.09-1.14c-.15.72-.73 1.43-.54 2.07.19.62 1.12.48 1.59.35l4.56-1.26c-.3.72-.77 1.06-.64 1.66 2.6.06 4.79-1.65 5.47-3.9.15-.51.23-.7.51-1.1.79-1.12.94-2.57.74-3.91-.06-.4-.61-1-.9-.64l-1.99 2.59-2.73-.06c.24-1.52-.83-3.41-1.81-3.17l-1.1 2.56-.35-2.44 3.32-2.62c.55-.43 1.42-.47 2.11-.53.58 1.45.04 3.07.21 3.38.33.58 2.7-.54 3.2-2.6l2.91.02.37 2.09c.06.32.4.31.58.31.49.02 1.78-1.59 2.16-2.69.48-1.38 2.21-1.81 2.84-2.75.38-.56.17-1.39.02-2.07 1.98.17 3.64 1.05 5.7.02-.77-.36-1.49-.29-2.23-.38l-3.64-.44c-.2-.45-.38-1.3-.34-1.8l1.96-.48c1.68-.4 3.3-.74 4.93-1.43-.37-.78-1.14-.31-2.22-.04l-4.73 1.19c-.09-.44.02-.71.16-1.04 1.65-.4 3.3-.83 4.82-1.64.62-.33 2.18-.77 2.18-.77.09-.03.11-.33.02-.34Zm-157.46-94.2c-.23-.48-.27-.9-.24-1.48l1.94.3c-.33.61-.95.95-1.7 1.18m.53-5.85c.56-1.35 1.35-2.57 2.54-3.56l.37 2 .66 1.2c-1.09.81-2.47 1.14-3.57.35Zm6.67 9.42c1.05.56 1.95.94 2.96 1.31.41.15.59.66.62 1 .14 1.9-3.59 1.9-5.67 1 .9-1.08 1.61-2.11 2.09-3.31m-2.67-.41c-.06 1.08-.82 2.43-1.24 2.35-.03 0-1.27-.96-1.42-1.75 1.06.12 1.81-.56 2.66-.6m6.57-13.3c-.43.34-.72.78-1.25 1.07-.67-.67-1.24-1.37-1.44-2.39 1.37-.09 2.69.09 4.02.27l-1.33 1.06Zm8.49 1.84-1.44 1.42c-.82.8-2.15-1.52-1.28-3.37 1.14.39 2.21.84 3.07 1.56.2.17-.27.32-.35.39m4.33 3.99c-.35.4-.69.68-.85 1.24l-1.05-.62c.09-1.14.53-2.08.81-3.19l2.21 1.32-1.11 1.26Zm3.7 5.01c-.2-.16-.28-.49-.15-.76l1.3-2.69c.78.63 1.4 1.16 2.03 1.94-2.27.75-2.32 2.22-3.18 1.51m6.74 5.59-.62 1.06c-1.18-.86-1.78-1.75-1.21-3.15.26-.63.31-1.42.94-1.85l1.32 2c.22.33.65.49.66.97-.48.18-.82.5-1.1.97ZM-76.15-8.71c-1.04 2.06-1.78 5.05-1.23 7.42l-1.86.56c-.62-1.05-.2-4.11.33-5.17.54-1.07.75-2.09.75-3.32-.01-2.45.14-4.93.88-7.25.37-1.14.65-2.23 1.55-3.05-.64 3.21-.98 6.24-.03 9.29.14.44-.2 1.13-.39 1.52m4.65 5.96-1.78.36c.06-1.26.32-2.5.77-3.74.18-.49.57-1.01.51-1.58l-.36-3.25c-.18-1.63.17-3.2.96-4.77-.11 2.51.19 4.95 1.43 7.23-.93 1.55-1.68 3.87-1.53 5.75m14.28-48.81 1.22-2.38 1.97 3.32-1.48.9-1.13.99c-.17.15-.19.65-.67.65-.26-1.35-.72-1.92.08-3.48Zm-7.91 25.06c-.3.92-.85 1.74-.9 2.78-.03.32-.44.24-.37-.06-.13-.94.37-1.76.48-2.56.21-1.52.97-2.63 1.67-3.91.92-1.66 1.87-3.12 3.16-4.57l1.34-1.51c1.73-1.94 3.43-3.77 5.38-5.48.27-1.86 1.22-4.28 2.49-5.77l1.9 2.32c.24.3.42.52.81.77-1.85.77-3.1 2.37-3.65 4.21-1.4 1.25-2.46 2.71-3.55 4.17l-1.34 1.07-4.53 4.37c-1.27 1.23-2.31 2.36-2.9 4.15Zm12.3 6.77c-8.17 4.13-8.63 9.81-9 9.89-.07.01-.24-.02-.28-.11-.05-.09 0-.23.02-.37l.52-3.73c.69-2.55 1.99-4.83 3.91-6.62l2.03-1.89 2.61-2.23c.98-.84 2.06-1.69 3.2-2.39 1.08-.66 1.48-1.34 1.82-2.44.79-2.57 2.65-4.6 4.9-6.3-.88-.6-1.96-.16-2.85.09-1.72.48-3.23 1.45-4.06 3.04l-1.19 2.27c-.2.38-.85.39-1.16.64l-2.68 2.15c-1.64 1.32-3.08 2.87-3.94 4.79l-.75 1.68c-.64.98-1.66 1.53-2.48 2.33l-2.05 2.58c-.11-1.53.32-2.88.98-4.1l1.62-2.94c.94-3.91 3.33-7.08 6.81-9.13 1.11-.66 2.18-1.19 3.05-2.23l2.66-3.21 2.4-2.27c.36-.34.79-.52.92-.97l3.2 2.62 5 4.05c.83.67 1.27 1.71 2.21 2.3.17.11.21.16.21.31 0 .22-.13.3-.38.3l-2.25-.02c-3.38-.52-6.47.94-7.52 4.22l-2.67 1.89-1.09 1.17c-.9.97-1.69 2-2.2 3.22-.29.69-.83 1.05-1.49 1.39Zm27.05 54.22c-1.08-.7-.77-3.27-.78-5.13-.01-2.15.47-4.14 1.65-5.97l1.92-2.58c1.65-1.85 3.38-3.45 5.48-4.8.72-.46 1.3-1.11 1.71-1.87 1.54-2.91 2.89-4.07 5.51-5.96.23-.16.54-.48.49-.77l-.41-2.29c-1.31-.68-2.68-.36-3.88.49l-1.59 1.12-2.76 1.91-4.22 2.71-1.65 1.21c-1.09.8-1.99 1.7-2.79 2.82-1.83 2.56-3.28 5.44-3.89 8.57v3.57c-1.97-3.59-1.43-8.11.64-11.51l1.89-3.08 1.57-1.87 2.36-2.34c.7-.69 1.78-1.09 2.21-2L-21 3.97l1.49-1.67 1.03-.95c.49-.45 1.45-.73 1.76-1.38l-.09-2.5c-.61-.21-.97.01-1.44.2l-3.8 1.48c-2.99 1.17-5.61 2.97-8.01 5.08l-1.31 1.38c-1.47 1.01-2.64 2.08-3.54 3.6-1 1.68-1.86 3.35-2.41 5.26-.1.35-.24.71-.66.78l.4-2.33c.4-2.35.77-5.13 2.6-6.83l2.65-2.45 1.68-1.81c2.43-2.13 4.89-4.08 7.75-5.63l2.44-1.01c.61-.25 1.34-.26 1.88-.77l-1.06-2.17c-.17-.35-.14-1.05-.57-1.32-2.58.24-4.9 1.67-6.46 3.73-.9 1.19-2.09 1.7-3.33 2.47-1.56.97-2.59 2.64-3.74 4.04-1.45 1.75-1.25 3.18-2.22 4.29-.15-1.09.04-2.1.4-3.11.37-1.06.61-2.22 1.18-3.18 1.19-2 3.06-3.38 4.85-4.76.58-.45.9-1.14 1.34-1.68l1.64-1.98 1.11-1.16c.93-.98 1.98-1.77 3.24-2.33l-2.02-1.56c-2.44 1.29-4.66 2.83-6.41 4.89-.82.96-1.87 1.38-2.86 2.08l-3.18 2.26-2.58 1.95C-42.26-.85-43 4.59-43.46 8.37c-.16 1.31-.11 2.65.09 3.93-.05.07-.32.1-.36.06-.08-.06-.1-.22-.15-.41-.63-2.31-1.37-4.68-1.06-7.08.39-3.04 1.58-5.67 3.35-8.1 1.93-2.63 4.96-3.2 6.36-5.38 1.63-2.54 3.59-4.65 5.92-6.59l1.32-1.09 1.49-1.34-.77-2.84c-.11-.3-.49-.58-.73-.83-2.86.76-5.16 2.54-6.89 4.9-.23.32-.66.57-.97.27l1.2-2.16c1.14-2.04 3-3.47 5.04-4.59.34-.19.99-.64.9-1.08-.86-2.14-3.72-.84-5.71.49l-3.24 2.18c-1.09.74-1.59 2.03-2.34 3.09l-.89 1.24c-.3.43-.89.79-1.39 1l-3.38 1.45c-1.29.55-2.33 1.41-3.24 2.52l-2.46 3.01c.23-2.1.84-3.99 1.93-5.69 1.19-1.86 2.9-3.1 4.57-4.45l3.2-2.11 2.61-3.09c1.86-2.2 5.23-3.87 7.91-3.29 1.04.93 2.55 1.59 4.1 4.24.34.58.73 1.14 1.13 1.68l3.28 4.41 4.53 6.77c.38.81 2.49 4.35 3.17 5.42l3.53 5.54 2.38 3.35c1.11 1.56 2.35 2.93 3.75 4.24.17.16.33.42.3.58-.05.23-.32.32-.48.5l-1.3 1.57c-.83.66-1.89.96-2.87 1.31l-1.5.79c-3.92 2.06-3.57 4.79-4.76 5.79l-2.45 2.07-2.39 2.14-2.88 3.77c-1.68 2.2-2.07 5.17-2.16 7.94Zm2.92 8.74c-.1.42-.26.83-.65 1.18-.92-2.99.08-7.4 1.85-9.91l2.49-3.54c.44-.62.73-1.3 1.01-2.02.49-1.63 1.19-3.12 2.03-4.61 1.06-5.2 5.15-7.44 9.42-9.69l3.46-1.83 1.43-1.86c.31-.4.8.02 1.14.17.36.14.74.05.96.55-1.47 1.45-2.63 3.12-3.41 5.02l-1.12.57c-1.65 1.16-3.29 2.31-4.68 3.75l-1.57 1.63c-1.73 1.79-3.37 3.68-4.76 5.73-.71 1.05-.89 2.3-.78 3.43l-2.36 2.97c-.9 1.14-1.86 2.21-2.51 3.59-.8 1.67-1.54 3.17-1.96 4.89Zm8.38 20.49c-1.14 1.94-2.25 6.16-2.16 8.69-.56-.28-1.11-.48-1.52-.93-.55-.61.37-2.17.33-2.63-.04-.43.15-.56.26-.87.72-2.07 1.69-3.93 3.25-5.49.3-.3.41-.84 1.04-.82l-1.21 2.05Zm1.35-2.38-.07-.08.07-.07.08.07zm-.39-5.28-3.35 4.17-2.18 3.39-1.11 2.38c-.24.5-.38.94-.49 1.56-.15-.42-.34-.85-.46-1.4l-.49-2.28c.26-1.42.96-2.85 1.78-4.03.69-1.01 5.81-6.09 5.81-6.09.93-.75 1.92-1.12 3.03-1.53.21-.08 1.95-.61 2.06-.64l-2.07 1.87-2.54 2.6Zm6.92 21.96-2.14-1.43 2.76-.19 2.33-.6c-.58.94-2.57 2.47-2.95 2.21Zm-3.23-12.24c-.03-.88.71-1.49 1.11-2.18.32-.55.64-.64 1.07-.94.95-.68 1.76-1.16 3.01-1.22.81-.04 1.7-.61 2.58-.35.82.25 1.3 1.15 1.69 1.87l1.09 2.02c-3.91-1.43-7.35-2.38-10.54.8ZM.38 19.95c-.19 2.74-.06 5.47.3 8.21.07.56-.14.66-.43.97l-2.86 3.17c-1.4 1.82-2.42 3.84-3.46 5.87-.22.42-.56.62-.89.94l-.45 1.05c-3.12.59-6.32 2.02-8.3 4.49l-1.99 2.92c-1.01 1.48-1.2 3.03-1.46 3.04-.08 0-.19-.18-.18-.31l.27-2.1c.08-2.27 1.13-4.33 2.42-6.15 1.86-2.62 4.77-2.62 6.31-4.22l1.49-2.6 3.05-4.61c.88-1.34 2-2.41 3.28-3.36-.02-4.01.73-7.45 3.03-10.66.98 0 .01 1.16-.14 3.34Zm10.29-1.36.9-4.08c.06-.27.13-.51.33-.64.18-.12.41-.09.69-.09l2.78.09-1.28 2.57c-.64 1.29-1.19 2.54-1.48 3.94-.57 2.76-.8 5.49.12 8.24.26 1.59 1.07 2.84 2.02 4.43-1.13-.24-1.69-1.38-2.41-2.24-1.39-1.68-2.1-3.6-2.18-5.82-.08-2.16.05-4.3.52-6.41Zm.11 55.14 2.61-.56c-.87 1.11-2.67 1.84-2.9 1.2-.06-.17.04-.59.29-.64m-.72-5.23c-.34.32-1.12.86-1.62.55-.68-.42-1.24-1.05-1.84-1.66 1.71.28 3.13.44 4.83.08-.33.66-.93.6-1.37 1.02ZM4.02 25.38l.58-3.84.5-2.65c.33-1.76 1.34-5.71 2.34-5.61l2.64.26c-.57.97-1.06 1.73-1.3 2.73l-1.16 4.98.02 4.51.11 2.42.17 2.16c.15 1.92.46 3.62.98 5.38.28.95.44 1.86.93 2.74.07.12.06.34-.07.35-.12 0-.17-.06-.28-.15-1.18-.99-1.84-2.26-2.68-3.52-1.96-2.9-3.03-6.24-2.78-9.76M22.75 82.8l.79.41 2.67 1.53 1.49.97c1.16.76 2.33 1.78 2.64 3.15l.66 2.93c-.64-.14-.91-.61-1.03-1.13-.36-1.57-1.42-3.37-2.63-4.18l-1.89-1.26c-.65-.68-1.32-.95-2.15-1.37l-7.29-3.71-3.38-1.76c-.66-.34-.77-1.02-1.63-1.17-.49-.09-1.88-.86-1.75-1.74l-1.94-1.39c-1.2-.85-1.88-2.19-2.57-3.45l-1.12-2.05-1.57-2.77c.31-.14.61 0 .86.16l2.12 1.35c.85.54 1.69 1.06 2.28 1.93.66.96 1.36 1.9 1.79 3.01.51 1.32.98 2.65 1.91 3.67l1.51 1.09c.82.76 1.86 1.4 2.85 1.95l2.55 1.39 1.06.43 3.72 2.02Zm-3.49-18.53.89-1.25 1.09 1.68c-1.07.15-1.41 1.68-2.29 2.42l-3.12 1.64c-.45.24-.75.64-1.34.38l1.98-1.62 1.36-1.66 1.42-1.59Zm-.54-9.65-.19 2.81c-.05.74-1.01 1.26-1.59 1.63l-2.45 1.57-2.16 1.51c1.02-1.83 2.56-3.05 3.85-4.56l2.53-2.96Zm1.48-43.14 1.06.62 4.4 2.98 1.71 1.2c.77.54-1 2.13-5.12.24-.46-.21-1.17-.35-1.49-.73l-1.16-3.44c-.12-.34.29-1.05.59-.87Zm9.62 28.82c-2.21 1.5-5.37 1.16-6.26-1.09-.25-.63-.66-.89-1.14-1.3-1.2-1.02-1.74-2.58-1.82-4.16-1.41-1.57-1.96-3.57-1.43-5.61l.22-1.27c.05-.3.46-.64.69-.5.93 3.29 2.14 5.92 5.49 7.19-1.24.62-2.53.4-3.62-.06-.34.89.17 1.39.47 1.97.46.9 1.27 1.47 2.36 1.29.72-.12 1.03.19 1.49.62 1.22 1.15 3.31 2.63 4.53 1.64 0 .67-.51.96-.98 1.27Zm17.32-18.07c.4.25.56.73.85 1.09.56.7-.05 1.86-.14 1.95-.14.11-.42.11-.68.09l-1.82-.14c-1.41-.11-2.52-1.22-3.6-1.93.61-.28 1.02.45 1.47.47l3.54.13c.34-.55.32-.99.38-1.64Zm-7.43 9.11 1.38.74c1.02.55 2.1 1 3.24 1.06.13 0 .16.3.12.36-.06.09-.25.21-.5.19-1.95-.11-3.48-1.11-5.12-1.94-1.18-.6-2.59-.62-3.74-1.64 1.63-.17 3.2.46 4.62 1.22Zm-3.98-6.12 5.09.32c1.25.75 2.13 1.86 2.46 3.27.19.38.39.7.3 1.33-1.46-.3-2.5-1.29-3.57-2.28l-2.25-1.52c-.74-.49-2.5.01-2.02-1.12Zm5.71-5.71c.33.09.88.09 1.05-.28.18-.4.2-.84.52-1.2.63.3 1.09.72 1.56 1.29-.64.49-1.14.99-1.57 1.68l-3.45-1.28-4.22-1.31c.59-.13 1.04-.18 1.48-.09l1.45.3 3.18.88Zm-7.94-3.84c.2-.76.97-.69 1.53-1.15 1.01.22 2.13.28 3.23.81l-3.23.27-1.53.06Zm.35 17.24c2.28-.49 4.58.13 6.71.91 1.61.59 2.62.54 2.41 1.11-.86.15-1.78-.25-2.64-.45l-3.06-.72c-1.13-.26-2.31-.13-3.42-.85m2.04 2.26c.03-.73 6.8.53 7.07.95.05.08.07.36-.1.35-1.93-.12-6.99-.69-6.97-1.29Zm19.84 1.8c-.37.35-.73.56-1.13.83l-1.53 1.03c.09.02.38.07.46.2l-1.94 3.42c-.07.14-.28.17-.37.2-.1.02-.28-.03-.33-.21l-.35-1.3c-.14-.51-.66-.7-1.2-.56-2.14.54-3.12-.13-3.47 1.02-.23.74-.64 1.47-1.36 1.83.03-1.07.16-2.19-.44-3.07-.69-1.03-3.06.35-4.46 1.64-.6.55-1.56 1.03-1.91 1.79-.35 1.1.08 2.39.41 3.43.06.2.53.18.58.06l1.09-2.58c.46.21.51.57.58.94l.3 1.66c1.16.25 2.48.55 3.68.27.96-.22 1.34-1.39 1.93-2.08.09 1.8-.27 4.03-1.68 3.86-.88-.11-1.71-.13-2.62.1-1.42.36-2.9.22-4.14-.57-.15-1.13-1.17-1.3-1.14-2.92.02-1.35-.4-2.56.96-4.12l.99-1.13c.72-.58 1.77-.58 2.6-.86l2.21-.74c1.01-.05 1.96 1.35 2.71 1.15l5.04-1.35c.01-.42-.18-.75-.37-1.09l-1.26-2.29 3.85 1.07c.74.2 1.39.4 2.29.37Z" class="cls-2"/><path d="m27.52 43.73-5.5 2.08c-.08.05-.16.09-.24.13-.83.45-1.71.79-2.71 1.06v.02c-.03-.03-.06-.07-.09-.11-.54-.91-.73-1.95-1.03-2.97-1.04-3.5-2.84-6.03-2.41-9.67.17-1.45 1.42-3.97 2.15-5.34.31 1.73.61 3.19 1.83 4.24.33.28.5.68.45 1.15-.13 1.27-.12 1.18.24 2.28.19.58.85 1.56 1.62 1.89 1.29.2 1.92 2.82 4.08 4.41.17.1.35.2.55.3l.61.3.45.22Z" class="cls-2"/></g><rect width="64" height="64" x="1" y="1" class="cls-1" rx="32" ry="32"/></g></svg>