<svg xmlns="http://www.w3.org/2000/svg" id="Layer_2" data-name="Layer 2" viewBox="0 0 66 66"><defs><clipPath id="clippath"><rect width="64" height="64" x="1" y="1" class="cls-3" rx="32" ry="32"/></clipPath><style>.cls-1{fill:#e8d9c8}.cls-3{fill:none;stroke:#e8d9c8;stroke-miterlimit:10;stroke-width:2px}</style></defs><g id="Layer_1-2" data-name="Layer 1"><g style="clip-path:url(#clippath)"><path d="M62.65 30.25c-.65 0-7.18 2.03-7.18 2.03-.69-2.01-1.99-2.61-3.57-3.72l-.76-1.61-1.24-2.32c-.68-1.28-1.35-2.51-2.42-3.53l-3-2.89c-1.38-1.07-2.75-2.11-4.38-2.73-2.06-.79-4.2-1.04-6.34-1.52l-3.51-.79-4.35-.67c-1.23-.19-2.28-.48-3.52-.86-.71-.22-1.67-.96-2.46-.66-.93.35-.95 1.74-.52 2.68-2.83.29-5.58.08-8.39-.17l-5.06-.45-1.52-.75C.61 11.08-2.58 8.81-5.13 5.7c-2.25-2.75-4.16-5.61-6-8.65l-2.63-4.34c-3.67-6.05-6.69-10.35-11.14-15.84l-.53-.65-4.09-4.2-6.37-6.37-4.35-3.96c-2.32-1.85-4.5-3.74-6.54-5.9-1.66-1.76-2.95-3.65-4.28-5.66l-.66-.99-1.63-2.64-2.76-4.06c-1.02-1.51-1.98-2.99-3.15-4.39l-1.49-1.78c-1.19-1.42-2.54-2.57-4.03-3.67-2.06-1.52-4.12-2.91-6.33-4.19l-2.25-1.31a10.9 10.9 0 0 0-3.43-1.3c-2.7-.52-5.38-1.01-8.16-.73-3.98.4-7.15 3.37-8.27 7.13-.61 2.06-.77 4.56.1 6.41l.99 2.08 1.23 1.61c1.24 1.63 2.87 3.18 4.91 3.55 1.47.26 3.05.07 4.28-.56.83-.42 1.04-1.26.92-2.03-.14-.89-.52-1.56-1.35-1.91l-1.86-.79c-.66-.28-1.14-.77-1.86-.94-.89-.21-2.18-1.92-2.03-2.52.4-1.56-.17-2.71 1.51-4.4.97-.98 2.39-1.29 3.79-1.37 3.03-.16 7.05 1.48 9.82 3.03 3.48 1.95 6.45 4.5 9.18 7.39l3.1 3.57c1.69 1.94 2.91 4.16 3.79 6.58.11.3.6 1.72.69 2.17l.37 1.85c.13.63.1 1.09.13 1.69l.08 1.87c-2.3.52-4.32 1.43-6.18 2.75-1.37.97-2.67 1.91-3.8 3.16l-2.3 3.34-1.63 2.21-2.29 2.17c-.36.34-.62.73-1.18 1.04-.28-1.07-.11-2.23-.13-3.42l-.04-2.72c-.03-1.9-1.77-3-3.32-2.85-1.57.15-2.76.92-3.61 2.2l-1.17 2.52-.38 1.02c.6.54.33 1.31.42 1.99l.22 1.82 1.31 5.93c.33 1.5.14 2.84-.31 4.29l-.38 2.59c-.29 1.97.08 3.87.5 5.78.1.47 0 .96.31 1.37l-.85 2.19-.47 1.76c.23.52.05 2.45 2.31 3.14.5.15 1.24.08 1.75-.04l2.65-.6 4.71-1.36c.82-.24 1.58-.24 2.35-.16l4.8-1.99 1.29-.34 2.94-.51c3.92-.68 7.49 2.45 9.11 6.11.46 1.04.92 1.93 1.27 3.04l.66 2.12.47 2.16.57 2.4.53 3.19.48 2.17.79 3.07.96 2.48 1.35 2.93c.47 1.02.92 1.95 1.57 2.88l.9 1.75c.41.79.66 1.54 1.13 2.31l1.13 1.86 3.91 5.24c.27.36.45.57.77.9l2.91 3c.57.59.69 1.41 1.01 2.09l.69.95c1.58 2.52 2.71 5.16 3.76 7.96 1.11 2.96 1.82 5.95 2.7 8.98l.63 2.2c.4 1.4.92 2.81 1.75 4.03l1.03 1.51c.58.85 1.61 1.43 2.58 1.85 2.64 1.13 5.1 2.4 7.44 4.11l1.02.63c.6-.15 1.09.14 1.69.22l2.48.33c1.46.19 2.96-.11 4.37.42l1.38.52c.8.3 1.6.77 2.19 1.36l1.17.88a6.53 6.53 0 0 1 2.54 4.38c.11.87.51 1.41.89 2.13l1.02 1.94.75 1.33c.92 1.62 2.65 4.3 4.06 5.33.13.1.44.67 1.26.33l1.56-.64c.8-.28 1.57.05 2.13.73.39-.24.57-.71.38-1.19l-.37-.97c.05-.64.9-2.16-.12-3.16-.22-.22-.45-.44-.66-.68l-2.61-2.98c-.12-.09-.12-.35-.06-.43.39-.6 1.75-.17 2.85.76 1.07.91 1.68 2.22 2 3.59 1.29 1.38 1.65 3.77.71 5.55.86-.23 1.96-.62 2.44-1.34.42-.46 1.12-2.38.4-4.03.04-.43.37-.76.14-1.31l-.15-.35c-.48-1.12-1.11-2.17-1.91-3.09-.44-.5-.92-.96-1.52-1.3-.34-.2-.8-.17-.95-.59a.3.3 0 0 0 .08-.04c.41-.25.89-.37 1.35-.22.86.29 1.56.88 2.21 1.57 1.2 1.27 1.88 2.81 2.33 4.5.19.72.61 1.39.39 2.19-.05.17-.13.43-.04.58.24.41 2.11-.09 2.25 2.42l1.42-2.55c.54-.98.68-2 .59-3.12.77.73.77 1.01.77 2.03 0 1.05-.38 2.26-1.05 3.03l-1.4 1.58c-.27.3-.56.61-.94.73l1.18 1.79c.61.83 1.08 1.73 1.85 2.42 1.06.96 2.41 1.57 3.82 1.44.77-.07 1.43-.14 2.11-.47.62-.3 1.39-.24 1.84.32.63.79.94 1.73 1.28 2.78 1.68-.37 2.39-3.19 1.19-4.73.99-.13 1.65-.52 2.26-1.1.86 1.28.67 3.22 1.22 3.15 1.31-.16 1.8-2.64 1.46-4.49 1.36.71 1.36 2.13 2 3.15 1.3-.56 1.3-2.38 1.27-4.12.94.53 1.67 1.34 1.96 2.35.08.27.06.57.36.61 1.09.15 1.88-4.11-.71-6.37-.49-1.78-1.48-3.39-3.09-4.28-1.05-.57-2.17-.94-3.4-.71l-3.29 1.11c-1.05.36-1.94.15-2.81-.59-2.15-1.83-3.85-4.1-5.22-6.62l-4.77-8.72-2.07-4.3-1.45-2.4-3.58-6.36c-1.38-2.45-1.93-4.95-1.67-7.75.25-2.62 0-5.18-.9-7.74s-.06-.07-.09-.11c-.53-.9-.71-1.92-1.01-2.92-1.02-3.44-1.42-6.97-1-10.55.17-1.43.03-2.87.75-4.21.31 1.7.6 3.14 1.8 4.16.33.28.54.67.44 1.13-.26 1.18.05 2.22.4 3.31.18.57.34.88.85 1.23.24.17.45.38.73.49.05 0 .09.01.14.01.19 0 .35.04.48.1 1.27.2.84 1.86 3.24 3.3a.3.3 0 0 0 .08.04l1.1.55h-.04l.44.22.35-.1c1.46-.45 2.66-.48 3.94.36.74.49 1.74.74 2.2 1.67.18.36.45 1.17.24 1.56l-1.45 2.84c-.36.71-.77 1.38-.72 2.25l3.03-1.12c-.15.71-.72 1.41-.53 2.04.19.61 1.1.47 1.56.34l4.48-1.24c-.3.7-.75 1.04-.63 1.63 2.56.05 4.71-1.63 5.38-3.84.15-.5.23-.69.5-1.08.77-1.1.92-2.53.73-3.85-.06-.4-.6-.99-.88-.63l-1.95 2.54-2.69-.06c.23-1.49-.81-3.36-1.78-3.12l-1.08 2.52-.35-2.39 3.26-2.57c.54-.42 1.39-.46 2.07-.52.57 1.43.04 3.02.21 3.33.32.57 2.66-.53 3.15-2.56l2.86.02.36 2.05c.06.32.39.3.57.31.48.02 1.75-1.57 2.13-2.64.47-1.35 2.17-1.78 2.79-2.7.37-.55.17-1.37.02-2.04 1.94.17 3.57 1.03 5.6.02-.76-.35-1.46-.28-2.19-.37l-3.57-.43c-.2-.44-.37-1.28-.34-1.77l1.92-.47c1.65-.4 3.25-.73 4.85-1.41-.36-.77-1.12-.31-2.19-.04l-4.65 1.17c-.08-.43.02-.7.16-1.02 1.62-.39 3.24-.82 4.74-1.61.61-.33 2.14-.76 2.14-.76.09-.03.11-.33.02-.33ZM-92.17-62.37c-.23-.47-.27-.89-.24-1.45l1.91.29c-.32.6-.93.93-1.67 1.16m.52-5.75c.55-1.33 1.32-2.53 2.49-3.5l.36 1.97.65 1.18c-1.07.8-2.43 1.13-3.51.35Zm6.55 9.27c1.03.55 1.92.92 2.91 1.29.41.15.58.65.61.98.14 1.86-3.53 1.87-5.57.98.89-1.06 1.59-2.08 2.05-3.25m-2.62-.41c-.06 1.06-.81 2.39-1.22 2.31-.03 0-1.25-.95-1.4-1.72 1.04.12 1.78-.55 2.62-.59m6.46-13.08c-.42.34-.71.77-1.23 1.05-.66-.66-1.22-1.35-1.41-2.35 1.35-.09 2.65.09 3.95.26l-1.3 1.04Zm8.35 1.81-1.41 1.39c-.8.79-2.11-1.5-1.26-3.32 1.13.38 2.18.83 3.02 1.54.2.17-.27.31-.35.39m4.26 3.93c-.34.39-.68.67-.84 1.22l-1.04-.61c.08-1.12.52-2.04.8-3.14l2.17 1.29-1.1 1.24Zm3.64 4.92a.64.64 0 0 1-.15-.75l1.28-2.64c.76.62 1.38 1.14 2 1.91-2.23.74-2.28 2.19-3.13 1.48m6.63 5.5-.61 1.04c-1.16-.85-1.75-1.72-1.19-3.1.26-.62.3-1.4.93-1.82l1.3 1.96c.21.32.64.48.65.96-.47.17-.81.49-1.08.95Zm-15.17 48.9c-1.02 2.03-1.75 4.97-1.21 7.3l-1.83.55c-.61-1.03-.2-4.04.33-5.08.53-1.05.74-2.06.73-3.27-.01-2.41.14-4.85.87-7.13.36-1.13.64-2.19 1.53-3-.63 3.16-.96 6.14-.03 9.14.14.43-.19 1.11-.39 1.5Zm4.57 5.86-1.75.35c.06-1.24.32-2.46.76-3.68.18-.48.56-.99.5-1.55l-.35-3.19c-.18-1.6.17-3.14.94-4.69-.11 2.47.18 4.87 1.41 7.11-.91 1.53-1.65 3.8-1.5 5.65Zm14.05-47.99 1.2-2.34 1.94 3.26-1.46.89-1.11.97c-.17.15-.18.64-.66.64-.26-1.33-.71-1.88.08-3.42Zm-7.79 24.64c-.3.9-.83 1.72-.88 2.73-.03.32-.43.23-.36-.05-.13-.93.36-1.73.47-2.52.21-1.5.95-2.59 1.64-3.84.9-1.63 1.83-3.07 3.1-4.49l1.32-1.48c1.7-1.9 3.37-3.71 5.29-5.38.27-1.83 1.2-4.21 2.45-5.67l1.86 2.28c.24.29.41.51.8.76-1.82.76-3.04 2.33-3.59 4.14-1.38 1.23-2.41 2.66-3.49 4.1l-1.31 1.05-4.46 4.3c-1.25 1.21-2.27 2.32-2.85 4.08Zm12.1 6.66c-8.03 4.06-8.49 9.65-8.85 9.72-.07.01-.24-.02-.28-.1-.05-.09 0-.23.02-.36l.51-3.67c.68-2.51 1.96-4.75 3.84-6.51l1.99-1.86 2.57-2.19c.97-.82 2.03-1.67 3.14-2.35 1.06-.65 1.46-1.32 1.79-2.4.77-2.53 2.6-4.53 4.82-6.19-.86-.59-1.92-.16-2.81.09-1.69.47-3.18 1.43-4 2.99l-1.17 2.23c-.2.38-.84.39-1.14.63l-2.64 2.11c-1.61 1.29-3.03 2.82-3.87 4.71l-.74 1.65c-.63.96-1.64 1.51-2.44 2.29l-2.01 2.54c-.11-1.5.31-2.84.96-4.03l1.59-2.89c.93-3.84 3.28-6.96 6.7-8.97 1.1-.64 2.15-1.17 3-2.19l2.62-3.15 2.36-2.23c.35-.33.77-.51.9-.95l3.15 2.57 4.91 3.98c.82.66 1.25 1.68 2.17 2.26.17.1.21.16.21.3 0 .21-.13.3-.38.3l-2.21-.02c-3.32-.51-6.36.92-7.39 4.15l-2.62 1.85-1.07 1.15c-.89.95-1.66 1.97-2.17 3.17-.29.67-.82 1.03-1.47 1.36Zm26.6 53.31c-1.07-.69-.76-3.22-.77-5.04-.01-2.12.46-4.07 1.62-5.87l1.89-2.54c1.62-1.82 3.32-3.39 5.39-4.72a4.9 4.9 0 0 0 1.68-1.84c1.51-2.87 2.85-4 5.42-5.86.22-.16.54-.48.48-.76l-.4-2.26c-1.29-.67-2.63-.35-3.81.48l-1.56 1.1-2.72 1.88-4.15 2.67-1.62 1.19c-1.08.79-1.96 1.67-2.74 2.77-1.8 2.52-3.23 5.35-3.82 8.42v3.51c-1.94-3.53-1.41-7.98.63-11.32l1.85-3.03 1.54-1.83 2.32-2.3c.69-.68 1.75-1.07 2.17-1.96l1.3-2.7 1.47-1.64 1.01-.94c.48-.45 1.43-.71 1.73-1.35l-.09-2.46c-.6-.21-.95.01-1.42.19L-20.35.45c-2.94 1.15-5.52 2.92-7.87 5l-1.29 1.36c-1.44.99-2.6 2.04-3.48 3.54-.98 1.66-1.83 3.3-2.37 5.18-.1.34-.23.7-.65.76l.39-2.29c.39-2.31.76-5.04 2.56-6.71l2.6-2.41 1.65-1.78c2.39-2.09 4.81-4.01 7.62-5.54l2.4-.99c.6-.25 1.32-.26 1.85-.76l-1.05-2.13c-.17-.35-.13-1.04-.56-1.3-2.53.24-4.82 1.64-6.35 3.66-.89 1.17-2.06 1.67-3.27 2.42-1.53.95-2.54 2.6-3.68 3.97-1.43 1.72-1.23 3.13-2.18 4.22-.15-1.07.04-2.06.39-3.06.36-1.04.6-2.18 1.16-3.13 1.17-1.96 3-3.32 4.77-4.68.57-.44.88-1.12 1.32-1.65l1.61-1.95 1.09-1.14c.92-.96 1.95-1.74 3.18-2.29l-1.98-1.53c-2.4 1.26-4.58 2.78-6.3 4.81-.8.95-1.84 1.36-2.81 2.05l-3.13 2.23-2.54 1.92c-2.95 2.23-3.69 7.58-4.14 11.3-.16 1.29-.11 2.6.09 3.86-.05.07-.31.1-.36.06-.08-.06-.1-.22-.15-.4-.62-2.28-1.34-4.6-1.04-6.96.38-2.99 1.55-5.58 3.3-7.96 1.9-2.59 4.88-3.14 6.25-5.29 1.6-2.5 3.53-4.57 5.83-6.47l1.3-1.08 1.47-1.31-.76-2.8c-.1-.3-.48-.57-.72-.82-2.81.75-5.07 2.5-6.77 4.81-.23.32-.65.56-.95.27l1.18-2.12c1.12-2 2.95-3.41 4.96-4.51.33-.18.98-.63.88-1.06-.85-2.1-3.66-.83-5.61.48l-3.18 2.15c-1.07.72-1.56 2-2.3 3.04l-.87 1.22c-.3.42-.87.77-1.36.98l-3.32 1.42c-1.27.54-2.29 1.38-3.19 2.48l-2.42 2.96c.23-2.07.83-3.93 1.9-5.6 1.17-1.82 2.85-3.05 4.49-4.38l3.14-2.07 2.57-3.03c1.83-2.16 5.14-3.8 7.78-3.23 1.02.92 2.51 1.56 4.03 4.17.34.57.71 1.12 1.11 1.66l3.23 4.33 4.45 6.66c.38.8 2.45 4.28 3.12 5.33l3.45 5.44 2.34 3.29c1.09 1.54 2.31 2.88 3.69 4.16.17.16.33.41.29.57-.05.22-.32.31-.47.49l-1.27 1.54c-.81.65-1.86.94-2.82 1.29l-1.48.78c-3.85 2.03-3.51 4.71-4.68 5.69l-2.41 2.03-2.35 2.1-2.83 3.71c-1.65 2.16-2.03 5.08-2.13 7.81Zm2.87 8.59c-.1.42-.25.82-.64 1.16-.9-2.94.08-7.27 1.82-9.75l2.45-3.48c.43-.61.71-1.28.99-1.99.49-1.6 1.17-3.07 2-4.53 1.04-5.12 5.07-7.31 9.26-9.53l3.4-1.8 1.41-1.82c.3-.39.78.02 1.13.16.36.14.73.05.94.54-1.44 1.43-2.59 3.07-3.35 4.93l-1.1.56c-1.62 1.14-3.23 2.27-4.6 3.69l-1.54 1.6c-1.7 1.76-3.31 3.62-4.68 5.63-.7 1.03-.88 2.26-.76 3.37l-2.32 2.92c-.89 1.12-1.82 2.17-2.47 3.53-.78 1.64-1.51 3.11-1.92 4.81Zm8.24 20.14c-1.12 1.9-2.21 6.05-2.13 8.54-.55-.28-1.09-.48-1.49-.91-.54-.6.37-2.14.32-2.58-.04-.42.15-.55.26-.85.71-2.03 1.66-3.86 3.2-5.4.3-.29.4-.83 1.03-.8l-1.19 2.01Zm1.32-2.33-.07-.08.07-.07.08.07zm-.38-5.19-3.29 4.1-2.14 3.33-1.1 2.34c-.23.49-.37.92-.49 1.54-.15-.41-.33-.83-.45-1.38l-.48-2.24c.26-1.4.95-2.8 1.75-3.97.68-.99 5.71-5.99 5.71-5.99.92-.74 1.88-1.1 2.98-1.51.2-.08 1.92-.6 2.03-.63l-2.03 1.84-2.5 2.56ZM-5.17 78l-2.11-1.4 2.72-.18 2.29-.59c-.57.92-2.53 2.42-2.9 2.18Zm-3.17-12.04c-.03-.86.7-1.47 1.09-2.14.31-.54.63-.63 1.05-.92.94-.67 1.73-1.14 2.95-1.2.8-.04 1.67-.6 2.54-.34C.1 61.6.57 62.49.95 63.2l1.07 1.99c-3.85-1.4-7.22-2.34-10.36.79ZM1.7 20.9c-.18 2.69-.05 5.38.3 8.07.07.55-.14.65-.42.96l-2.82 3.12c-1.37 1.79-2.38 3.77-3.4 5.77-.21.42-.55.61-.88.92l-.44 1.04c-3.07.58-6.22 1.99-8.16 4.41l-1.96 2.87c-.99 1.46-1.18 2.98-1.44 2.99-.08 0-.19-.18-.17-.31l.27-2.06c.08-2.23 1.11-4.25 2.38-6.05 1.82-2.57 4.69-2.58 6.21-4.15l1.46-2.56 3-4.53c.87-1.32 1.97-2.37 3.23-3.3-.02-3.94.72-7.33 2.98-10.48.96 0 .01 1.14-.13 3.28Zm10.12-1.33.89-4.01c.06-.26.13-.5.33-.63.17-.12.41-.09.67-.08l2.73.09-1.26 2.53c-.63 1.27-1.17 2.5-1.46 3.87-.56 2.72-.79 5.4.11 8.1.26 1.56 1.05 2.79 1.98 4.36-1.11-.24-1.66-1.35-2.37-2.21-1.37-1.65-2.07-3.54-2.15-5.72-.08-2.13.05-4.22.51-6.3Zm.1 54.21 2.57-.55c-.85 1.09-2.62 1.81-2.85 1.18-.06-.16.04-.58.28-.63m-.71-5.14c-.33.32-1.1.84-1.59.54-.67-.41-1.22-1.03-1.8-1.63 1.68.28 3.08.43 4.75.08-.33.65-.92.59-1.35 1.01Zm-5.93-42.4.57-3.78.49-2.61c.33-1.73 1.31-5.62 2.3-5.52l2.6.25c-.56.96-1.05 1.7-1.27 2.69l-1.14 4.89.02 4.44.11 2.38.17 2.12c.15 1.89.45 3.56.96 5.29.27.93.43 1.83.92 2.69.07.12.05.34-.07.35-.11 0-.17-.06-.27-.15-1.16-.97-1.81-2.23-2.64-3.46-1.92-2.85-2.98-6.14-2.73-9.59ZM23.69 82.7l.78.4 2.63 1.51 1.47.96c1.14.74 2.29 1.75 2.6 3.09l.65 2.88c-.63-.14-.9-.6-1.01-1.11-.35-1.54-1.39-3.31-2.58-4.11l-1.85-1.24c-.64-.67-1.3-.93-2.11-1.34l-7.17-3.65-3.32-1.73c-.65-.34-.76-1-1.6-1.15-.49-.09-1.85-.84-1.72-1.71l-1.91-1.36c-1.18-.84-1.85-2.15-2.52-3.4l-1.1-2.02L3.39 66c.31-.14.6 0 .85.15l2.09 1.33c.83.53 1.66 1.04 2.25 1.89.65.94 1.34 1.87 1.76 2.96.5 1.3.97 2.61 1.88 3.6L13.7 77c.81.75 1.83 1.38 2.8 1.91l2.51 1.37 1.05.42 3.65 1.99Zm-3.43-18.23.88-1.23 1.07 1.65c-1.05.15-1.39 1.65-2.25 2.38l-3.07 1.62c-.45.23-.74.63-1.32.38l1.94-1.6 1.34-1.64 1.4-1.56Zm-.53-9.48-.18 2.77c-.05.73-1 1.24-1.56 1.6l-2.41 1.54-2.13 1.48c1-1.8 2.52-3 3.79-4.48zm1.46-42.42 1.04.61 4.33 2.93 1.68 1.18c.76.53-.98 2.09-5.04.24-.45-.21-1.15-.34-1.46-.72l-1.14-3.38c-.11-.33.29-1.03.58-.86Zm9.46 28.34c-2.18 1.47-5.28 1.14-6.16-1.07-.24-.62-.65-.88-1.12-1.28-1.18-1.01-1.71-2.54-1.79-4.09-1.38-1.54-1.92-3.51-1.41-5.52l.21-1.25c.05-.29.46-.63.68-.49.92 3.24 2.11 5.82 5.4 7.07-1.22.61-2.49.39-3.56-.06-.33.88.17 1.36.46 1.93.45.89 1.25 1.45 2.32 1.27.71-.12 1.02.19 1.47.61 1.2 1.13 3.26 2.58 4.46 1.61 0 .66-.5.94-.96 1.25Zm17.02-17.76c.39.25.55.71.84 1.07.55.69-.05 1.83-.14 1.91-.13.11-.41.11-.67.09l-1.79-.14c-1.39-.11-2.48-1.2-3.54-1.9.6-.27 1 .44 1.44.46l3.48.13c.33-.54.32-.98.38-1.62m-7.3 8.95 1.36.73c1.01.54 2.07.98 3.19 1.04.13 0 .16.29.12.36-.05.09-.24.2-.49.19-1.92-.1-3.42-1.09-5.04-1.9-1.16-.59-2.54-.61-3.68-1.61 1.61-.17 3.15.45 4.54 1.2Zm-3.92-6.02 5.01.31c1.23.73 2.1 1.83 2.41 3.21.18.38.38.69.29 1.31-1.44-.29-2.46-1.27-3.51-2.24l-2.22-1.49c-.72-.49-2.46.01-1.98-1.1m5.62-5.61c.33.09.86.08 1.03-.28.17-.39.2-.82.51-1.18.62.3 1.07.71 1.54 1.27-.63.48-1.13.97-1.55 1.66l-3.39-1.26-4.15-1.29c.58-.13 1.02-.18 1.45-.09l1.43.3 3.13.86Zm-7.81-3.77c.2-.74.96-.67 1.5-1.13.99.22 2.1.27 3.18.8l-3.18.27zm.34 16.94c2.24-.48 4.5.13 6.6.89 1.59.58 2.58.54 2.36 1.09-.85.15-1.75-.25-2.59-.45l-3.01-.71c-1.11-.26-2.27-.13-3.36-.83Zm2.01 2.23c.03-.72 6.68.52 6.95.93.05.08.07.35-.1.34-1.89-.12-6.87-.68-6.85-1.27m19.5 1.77c-.36.35-.72.55-1.11.82l-1.5 1.01c.09.02.38.07.45.2l-1.91 3.37c-.07.13-.27.17-.36.19-.1.02-.27-.03-.32-.21l-.34-1.28c-.13-.5-.65-.69-1.18-.55-2.1.54-3.06-.13-3.41 1-.23.73-.63 1.45-1.34 1.8.03-1.05.15-2.15-.43-3.02-.68-1.02-3.01.34-4.38 1.61-.59.54-1.53 1.01-1.88 1.76-.34 1.08.08 2.35.4 3.37.06.2.52.18.57.05l1.07-2.53c.45.21.5.56.57.92l.3 1.64c1.14.25 2.44.54 3.62.27.94-.21 1.32-1.36 1.9-2.04.09 1.77-.26 3.96-1.65 3.8-.86-.1-1.68-.13-2.57.1-1.4.36-2.85.22-4.07-.56-.15-1.11-1.15-1.28-1.12-2.87.02-1.33-.39-2.52.94-4.05l.97-1.11c.71-.57 1.74-.57 2.56-.85l2.17-.73c.99-.05 1.93 1.33 2.66 1.13l4.96-1.33c.01-.41-.17-.74-.36-1.07l-1.24-2.25 3.79 1.05c.73.2 1.36.4 2.25.36Z" class="cls-1"/><path d="m28.38 44.28-5.41 2.04c-.08.05-.16.09-.24.13-.82.44-1.68.77-2.67 1.04v.02c-.03-.03-.06-.07-.09-.11-.53-.9-.71-1.92-1.01-2.92-1.02-3.44-2.79-5.93-2.37-9.51.17-1.43 1.4-3.91 2.12-5.25.31 1.7.6 3.14 1.8 4.16.33.28.49.67.44 1.13-.13 1.25-.12 1.16.23 2.25.18.57.83 1.53 1.59 1.86 1.27.2 1.89 2.78 4.01 4.34q.255.15.54.3l.6.3.44.22Z" class="cls-1"/></g><rect width="64" height="64" x="1" y="1" class="cls-3" rx="32" ry="32"/></g></svg>